<svg width="135" height="135" viewBox="0 0 135 135" fill="none" xmlns="http://www.w3.org/2000/svg">
<path d="M33.2959 66.2852C33.2959 57.4473 36.4697 49.8301 42.8174 43.4336C48.1885 38.0137 54.4629 34.8643 61.6406 33.9854V18.458L73.3594 13.3311V33.9854C80.5371 34.8643 86.8115 38.0137 92.1826 43.4336C98.4814 49.7812 101.655 57.5449 101.704 66.7246V66.9443C101.704 76.0752 98.5303 83.8145 92.1826 90.1621C86.8115 95.5332 80.5371 98.6582 73.3594 99.5371V118.873L61.6406 124V99.5371C54.3652 98.6582 48.0908 95.5332 42.8174 90.1621C36.4697 83.7168 33.2959 75.7578 33.2959 66.2852ZM73.3594 45.7773V87.6719C77.6074 86.8906 81.2451 84.9375 84.2725 81.8125C88.4717 77.5156 90.5713 72.4863 90.5713 66.7246C90.5713 60.8652 88.4961 55.8359 84.3457 51.6367C81.1719 48.4629 77.5098 46.5098 73.3594 45.7773ZM61.6406 87.6719V45.7773C57.4902 46.5586 53.8525 48.5117 50.7275 51.6367C46.5283 55.8359 44.4287 60.8408 44.4287 66.6514V66.7246C44.4775 72.6328 46.5771 77.6621 50.7275 81.8125C53.8525 84.9375 57.4902 86.8906 61.6406 87.6719Z" fill="white"/>
<path d="M24.0398 118.968L14.8352 109.763L107.818 13.6596L118.911 24.2102L24.0398 118.968ZM67.5909 134.75C58.2159 134.75 49.4375 133.017 41.2557 129.551C33.0738 126.028 25.8863 121.17 19.6932 114.977C13.5 108.784 8.67043 101.625 5.20452 93.5C1.73861 85.3182 0.0340646 76.5682 0.0908827 67.25C0.0340646 57.9886 1.73861 49.3239 5.20452 41.2557C8.67043 33.1307 13.5 26 19.6932 19.8636C25.8863 13.6705 33.0738 8.84091 41.2557 5.375C49.4375 1.85228 58.2159 0.0909195 67.5909 0.0909195C76.7954 0.0909195 85.4318 1.85228 93.5 5.375C101.625 8.84091 108.756 13.6705 114.892 19.8636C121.085 26 125.915 33.1307 129.381 41.2557C132.903 49.3239 134.693 57.9886 134.75 67.25C134.693 76.5682 132.903 85.3182 129.381 93.5C125.915 101.625 121.085 108.784 114.892 114.977C108.756 121.17 101.625 126.028 93.5 129.551C85.4318 133.017 76.7954 134.75 67.5909 134.75ZM67.5909 114.295C73.9545 114.295 79.9488 113.074 85.5738 110.631C91.1988 108.188 96.142 104.807 100.403 100.489C104.722 96.1705 108.102 91.1705 110.545 85.4886C112.989 79.8068 114.239 73.7273 114.295 67.25C114.239 58.6705 112.08 50.858 107.818 43.8125C103.614 36.7102 97.9886 31.0568 90.9432 26.8523C83.8977 22.5909 76.1136 20.4886 67.5909 20.5455C61.0568 20.5455 54.9204 21.767 49.1818 24.2102C43.4432 26.5966 38.4147 29.9489 34.0966 34.2671C29.7784 38.5284 26.4261 43.5 24.0397 49.1818C21.6534 54.8068 20.4886 60.8296 20.5454 67.25C20.4886 75.8864 22.5341 83.7841 26.6818 90.9432C30.8863 98.0455 36.5682 103.727 43.7272 107.989C50.8863 112.193 58.8409 114.295 67.5909 114.295Z" fill="#FF0000"/>
</svg>
